Coordinates
version=1
nRows=11
nColumns=36
inDegrees=yes

Units are S.I. units (second, meters, Newtons, ...)
If the header above contains a line with 'inDegrees', this indicates whether rotational values are in degrees (yes) or radians (no).

endheader
time	pelvis_tilt	pelvis_list	pelvis_rotation	pelvis_tx	pelvis_ty	pelvis_tz	hip_flexion_r	hip_adduction_r	hip_rotation_r	knee_angle_r	knee_angle_r_beta	ankle_angle_r	subtalar_angle_r	mtp_angle_r	hip_flexion_l	hip_adduction_l	hip_rotation_l	knee_angle_l	knee_angle_l_beta	ankle_angle_l	subtalar_angle_l	mtp_angle_l	lumbar_extension	lumbar_bending	lumbar_rotation	arm_flex_r	arm_add_r	arm_rot_r	elbow_flex_r	pro_sup_r	arm_flex_l	arm_add_l	arm_rot_l	elbow_flex_l	pro_sup_l
      1.63750000	     -5.14200568	      0.71620556	     -1.36018741	     -0.95345556	      1.22848173	     -0.09001258	     10.49011230	     -2.23473460	     -1.56888437	     12.53025001	      0.21869412	      5.49225373	     -8.58916755	     -7.49999987	      6.52533053	      1.09407029	     -5.38619462	      4.75404730	      0.08297378	      1.55519343	     -6.23678717	     -7.49999987	    -19.36132289	     -0.18590271	      1.46537507	      6.74266574	     -4.14638483	     -3.28305117	     29.20792849	     80.14272102	      8.60218982	     -7.01896361	     16.01281712	     32.09159568	     90.65794736
      1.64166670	     -5.17651498	      0.66813101	     -1.42238127	     -0.95432078	      1.22788129	     -0.09010209	     10.60250509	     -2.15522297	     -1.55001082	     12.69908741	      0.22164089	      5.69787492	     -8.46230910	     -7.49999987	      6.63370101	      1.04545271	     -5.33248759	      4.82511329	      0.08421411	      1.83418363	     -6.04797044	     -7.49999987	    -19.33531762	     -0.11928398	      1.51626340	      6.58378656	     -4.09503120	     -4.54659874	     29.53291809	     86.69235749	      8.45792674	     -6.96359081	     14.81783658	     32.40541778	     98.42872321
      1.64583330	     -5.13674643	      0.65066649	     -1.43864345	     -0.95489872	      1.22956421	     -0.08976630	     10.64425528	     -2.10675908	     -1.43957752	     12.89260640	      0.22501843	      5.80351274	     -8.47494598	     -7.49999987	      6.64711715	      1.02270651	     -5.32631390	      4.87061385	      0.08500825	      2.01419830	     -5.93568278	     -7.49999987	    -19.35121476	     -0.10519454	      1.49621640	      6.65614436	     -4.06125753	     -4.49513410	     29.36345592	     85.69656978	      8.46492817	     -6.95086268	     14.81797975	     32.34998702	     97.00969900
      1.65000000	     -5.08870899	      0.63413394	     -1.40931735	     -0.95651711	      1.23200537	     -0.09122006	     10.61054811	     -2.11687695	     -1.46664871	     12.92195505	      0.22553066	      5.77015449	     -8.53207132	     -7.49999987	      6.66890263	      1.02487496	     -5.23996277	      4.94929487	      0.08638149	      1.98272887	     -6.01256967	     -7.49999987	    -19.45587174	     -0.03253781	      1.45348707	      6.72717511	     -4.11732456	     -4.37559948	     29.37591551	     85.00443605	      8.50654082	     -6.89768299	     14.91835875	     32.33455559	     96.20605340
      1.65416670	     -4.87737622	      0.56452630	     -1.34988882	     -0.95577770	      1.23267850	     -0.09144636	     10.30895829	     -2.05947149	     -1.52983005	     12.77809803	      0.22301988	      5.73989230	     -8.38522047	     -7.49999987	      6.43448898	      0.98359100	     -5.05268529	      4.90876504	      0.08567411	      1.90556836	     -6.27716308	     -7.49999987	    -19.74142317	      0.10486494	      1.41264898	      6.74410287	     -4.29807637	     -3.63016598	     29.57356221	     83.06653427	      8.63279101	     -6.96207001	     15.68998779	     32.38831253	     94.11910519
      1.65833330	     -4.87975245	      0.53216475	     -1.33406087	     -0.95471283	      1.23070668	     -0.09058720	     10.32269348	     -2.01832010	     -1.48515669	     12.82141089	      0.22377583	      5.68490326	     -8.42036640	     -7.49999987	      6.43684214	      0.94354262	     -5.05377610	      4.89935836	      0.08550993	      1.95521118	     -6.30807951	     -7.49999987	    -19.67484028	      0.16184761	      1.40195425	      6.78210980	     -4.27664301	     -3.69273287	     29.31879094	     82.38019472	      8.66499319	     -6.87550347	     15.67495531	     32.20486940	     93.26466451
      1.66250000	     -4.95516179	      0.49900350	     -1.34199702	     -0.95518166	      1.22972472	     -0.08993573	     10.41891431	     -1.97499103	     -1.43668932	     12.89884038	      0.22512723	      5.74529690	     -8.32058123	     -7.49999987	      6.51977566	      0.89856751	     -5.06484895	      4.88842964	      0.08531919	      2.00177907	     -6.35390959	     -7.49999987	    -19.52818269	      0.24262974	      1.39857383	      6.65167583	     -4.28159591	     -3.66949627	     29.48347683	     82.09707858	      8.57370250	     -6.88027968	     15.71103974	     32.37558727	     92.95948899
      1.66666670	     -4.93063995	      0.47583368	     -1.42351578	     -0.95684307	      1.22994297	     -0.09036152	     10.49970151	     -1.92670676	     -1.32790737	     13.05174832	      0.22779598	      5.70255210	     -8.57303914	     -7.49999987	      6.52171456	      0.85217062	     -5.20459710	      4.90134112	      0.08554454	      2.08883777	     -6.37639447	     -7.49999987	    -19.57692853	      0.22453375	      1.46698194	      6.82078562	     -4.31680789	     -3.59793647	     29.18578566	     80.43350819	      8.71566118	     -6.75311344	     15.72731528	     32.15278644	     91.11472837
      1.67083330	     -4.81576052	      0.41226381	     -1.36476961	     -0.95611402	      1.23072917	     -0.08843741	     10.33833785	     -1.83734106	     -1.40294029	     12.99767585	      0.22685224	      5.71863553	     -8.42695703	     -7.49999987	      6.40444770	      0.77215701	     -5.05915437	      4.88180919	      0.08520364	      2.05341561	     -6.45740667	     -7.49999987	    -19.69918964	      0.31974808	      1.40120040	      6.82006671	     -4.33904118	     -3.41391678	     29.27307108	     80.34520398	      8.80193363	     -6.81039429	     15.94767650	     32.17011599	     91.06413826
      1.67500000	     -4.73787510	      0.36727836	     -1.29678263	     -0.95563907	      1.23299116	     -0.08854432	     10.25396456	     -1.77294920	     -1.44628698	     13.02813605	      0.22738387	      5.79978853	     -8.30284180	     -7.49999987	      6.32217758	      0.71411908	     -4.93383402	      4.88839428	      0.08531858	      2.06189694	     -6.46818374	     -7.49999987	    -19.90646636	      0.38286098	      1.42893994	      6.73586107	     -4.27266017	     -4.64445086	     29.55146159	     86.86270663	      8.83987242	     -6.74889363	     14.84522663	     32.40797892	     98.38201970
      1.67916670	     -4.65197088	      0.31923769	     -1.28218247	     -0.95543127	      1.23288781	     -0.08942914	     10.15026867	     -1.71117816	     -1.45191668	     13.04562485	      0.22768911	      5.75446463	     -8.29474901	     -7.49999987	      6.17150835	      0.66081865	     -4.91006957	      4.79789468	      0.08373906	      2.05788747	     -6.42659825	     -7.49999987	    -19.99519537	      0.44748822	      1.42935630	      6.77561606	     -4.30416685	     -4.47270449	     29.46665562	     86.19166639	      8.89626847	     -6.70107529	     14.95768627	     32.37954002	     97.33464638
